<svg xmlns="http://www.w3.org/2000/svg" viewBox="0 0 355.63 81.1"><defs><style>.cls-1{fill:#fff;}</style></defs><title>Recurso 2</title><g id="Capa_2" data-name="Capa 2"><g id="Layer_1" data-name="Layer 1"><rect class="cls-1" x="204.57" y="22.46" width="10.34" height="41.65"/><path class="cls-1" d="M246.31,21.66a16.06,16.06,0,0,0-7.12,1.51,12.89,12.89,0,0,0-4.77,3.74v0h0v0c-.09-.17-1.1-2.11-2.47-4.44h-7.55V64.12h10.3V39.48a7.64,7.64,0,0,1,2.49-6.05,8.88,8.88,0,0,1,6.07-2.19A7.88,7.88,0,0,1,249,33.4a8.09,8.09,0,0,1,2.23,6.07V64.12h10.34V36.82q0-6.88-4.24-11a15.08,15.08,0,0,0-11-4.14"/><path class="cls-1" d="M345.33,22.55V47.36a7.58,7.58,0,0,1-2.49,6,9,9,0,0,1-6.15,2.17,7.92,7.92,0,0,1-5.73-2.15,8,8,0,0,1-2.23-6.06V22.55h-10.3V50q0,6.88,4.22,11a15.06,15.06,0,0,0,11,4.12,16.4,16.4,0,0,0,7.22-1.51,12.87,12.87,0,0,0,4.87-3.9s1.05,2.11,2.4,4.4h7.52V22.55Z"/><path class="cls-1" d="M209.72,3.88a5.73,5.73,0,0,0-4.26,1.67,5.83,5.83,0,0,0-1.65,4.28,5.65,5.65,0,0,0,5.91,5.91A5.84,5.84,0,0,0,214,14.1a5.73,5.73,0,0,0,1.67-4.26A5.79,5.79,0,0,0,214,5.53a5.84,5.84,0,0,0-4.28-1.65"/><path class="cls-1" d="M289.32,55.8c-7.33,0-10.46-6.11-10.46-12.45S282,30.89,289.32,30.89,299.77,37,299.77,43.35,296.65,55.8,289.32,55.8M300,27.11h0c-2.67-3.46-7.17-5.46-12.75-5.46a17,17,0,0,0-13.46,6.07q-5.25,6.08-5.25,15.57t5.25,15.6A16.9,16.9,0,0,0,287.28,65c7.34,0,11.37-3.47,12.55-5.18V62.6a7.69,7.69,0,0,1-1.89,5.23A10.73,10.73,0,0,1,293.21,71a19.17,19.17,0,0,1-6.21,1,34.42,34.42,0,0,1-7.44-.84l-.61-.14L275,79a34.53,34.53,0,0,0,4.09,1.16,39.62,39.62,0,0,0,8.59.91,30.54,30.54,0,0,0,8.59-1.17,23.91,23.91,0,0,0,7.12-3.36,15.52,15.52,0,0,0,4.93-5.73,17.32,17.32,0,0,0,1.81-8V22.46H302.6C301,25.28,300,27.11,300,27.11"/><polygon class="cls-1" points="180.19 53.64 170.88 22.59 163.92 22.59 154.57 53.64 146.1 22.59 135.48 22.59 147.72 64.1 160.51 64.1 167.4 40.77 174.29 64.1 187.08 64.1 199.23 22.59 188.61 22.59 180.19 53.64"/><path class="cls-1" d="M67.52,33.14C55,26,41.34,22,29.1,22A46.55,46.55,0,0,0,3.32,29.36,119.39,119.39,0,0,0,8.18,43.05c5.16-4.6,12.44-7.15,20.92-7.15,9.86,0,21.06,3.3,31.53,9.29A125.26,125.26,0,0,1,87.08,65.51c.66.68,1.27,1.35,1.87,2a111.77,111.77,0,0,0,7.89-11.89A138.11,138.11,0,0,0,67.52,33.14Z"/><line class="cls-1" x1="29.1" y1="50.66" x2="29.1" y2="50.66"/><path class="cls-1" d="M29.1,55.21c-4.49,0-7.77,1.21-9,3.33a5.47,5.47,0,0,0-.58,3.19A8.48,8.48,0,0,0,21.21,66a108.33,108.33,0,0,0,11,12.74s6.65-8,19-16.53a.13.13,0,0,0,0-.22c-7.52-4.32-15.57-6.8-22.06-6.8"/><path class="cls-1" d="M58.37,49.15c-9.8-5.6-20.19-8.69-29.27-8.69-7.93,0-14.59,2.51-18.94,7A94,94,0,0,0,15,56.6c.17-.44,5-5.95,14.09-5.95h0c7,0,15.7,2.48,24.21,7.34.74.42,6.12,3.75,7.83,5a96.74,96.74,0,0,1,18,15.76c2.5-2.48,4.8-5,6.92-7.59Q85,69.91,83.8,68.67A120.43,120.43,0,0,0,58.37,49.15Z"/><path class="cls-1" d="M12.77,7.56A129.05,129.05,0,0,0,0,13,81.8,81.8,0,0,0,2.09,24.74a51.46,51.46,0,0,1,27-7.27c13,0,27.47,4.16,40.68,11.72A143.81,143.81,0,0,1,99.12,51.47,118.7,118.7,0,0,0,105.8,36.1,162.85,162.85,0,0,0,77.59,15.54,110.09,110.09,0,0,0,58.88,7,69,69,0,0,0,12.77,7.56Z"/><path class="cls-1" d="M55.64,0c-1.25,0-2.49,0-3.72.06h0a.07.07,0,0,0-.07.07s0,.06.07.07A113,113,0,0,1,79.85,11.58a168,168,0,0,1,27.51,19.8A93.82,93.82,0,0,0,111.28,13,124.87,124.87,0,0,0,55.64,0Z"/></g></g></svg>